<svg xmlns="http://www.w3.org/2000/svg" viewBox="0 0 900 300" width="900" height="300" role="img" aria-label="Rohi the monkey, currently doing zoomies"><defs><linearGradient id="sky" x1="0" y1="0" x2="0" y2="1"><stop offset="0" stop-color="#7ec8f0"/><stop offset="1" stop-color="#dff3ff"/></linearGradient><radialGradient id="glow"><stop offset="0" stop-color="#fff7c9" stop-opacity="0.9"/><stop offset="1" stop-color="#fff7c9" stop-opacity="0"/></radialGradient><radialGradient id="moonglow"><stop offset="0" stop-color="#cdd9f0" stop-opacity="0.55"/><stop offset="1" stop-color="#cdd9f0" stop-opacity="0"/></radialGradient></defs><rect width="900" height="300" rx="16" fill="url(#sky)"/><circle cx="600" cy="64" r="58" fill="url(#glow)"/><circle cx="600" cy="64" r="21" fill="#ffd94d"/><g opacity="0.95" fill="#ffffff"><g><ellipse cx="0" cy="0" rx="26" ry="9"/><ellipse cx="18" cy="-6" rx="18" ry="8"/><animateMotion dur="70s" repeatCount="indefinite" path="M 120,52 H 820 H 120"/></g></g><g stroke="#46606e" stroke-width="1.6" fill="none" stroke-linecap="round"><g><path d="M -6,0 Q -2,-4 0,0 Q 2,-4 6,0"/><animateMotion dur="34s" repeatCount="indefinite" path="M -20,84 q 450.0,-26 940,10"/></g><g><path d="M -5,0 Q -1.5,-3.4 0,0 Q 1.5,-3.4 5,0"/><animateMotion dur="34s" begin="1.6s" repeatCount="indefinite" path="M -20,98 q 450.0,-22 940,14"/></g></g><circle cx="40" cy="222" r="34" fill="#1f7032" opacity="0.45"/><circle cx="120" cy="222" r="46" fill="#1f7032" opacity="0.45"/><circle cx="220" cy="222" r="38" fill="#1f7032" opacity="0.45"/><circle cx="330" cy="222" r="50" fill="#1f7032" opacity="0.45"/><circle cx="445" cy="222" r="40" fill="#1f7032" opacity="0.45"/><circle cx="560" cy="222" r="48" fill="#1f7032" opacity="0.45"/><circle cx="680" cy="222" r="38" fill="#1f7032" opacity="0.45"/><circle cx="790" cy="222" r="50" fill="#1f7032" opacity="0.45"/><circle cx="870" cy="222" r="36" fill="#1f7032" opacity="0.45"/><path d="M 0,240 Q 450.0,228 900,240 V 284 Q 900,300 884,300 H 16 Q 0,300 0,284 z" fill="#2e8b3d"/><path d="M 70,246 q 2,-12 3,-16" fill="none" stroke="#247232" stroke-width="2" stroke-linecap="round"/><path d="M 75,246 q 2,-12 -2,-16" fill="none" stroke="#247232" stroke-width="2" stroke-linecap="round"/><path d="M 250,246 q 2,-12 2,-16" fill="none" stroke="#247232" stroke-width="2" stroke-linecap="round"/><path d="M 256,246 q 2,-12 -3,-16" fill="none" stroke="#247232" stroke-width="2" stroke-linecap="round"/><path d="M 420,246 q 2,-12 3,-16" fill="none" stroke="#247232" stroke-width="2" stroke-linecap="round"/><path d="M 610,246 q 2,-12 -2,-16" fill="none" stroke="#247232" stroke-width="2" stroke-linecap="round"/><path d="M 616,246 q 2,-12 3,-16" fill="none" stroke="#247232" stroke-width="2" stroke-linecap="round"/><path d="M 840,246 q 2,-12 2,-16" fill="none" stroke="#247232" stroke-width="2" stroke-linecap="round"/><path d="M 846,246 q 2,-12 -2,-16" fill="none" stroke="#247232" stroke-width="2" stroke-linecap="round"/><ellipse cx="520" cy="250" rx="14" ry="6" fill="#8d99a6"/><ellipse cx="540" cy="253" rx="8" ry="4" fill="#7c8894"/><circle cx="150" cy="254" r="3" fill="#ffd94d"/><circle cx="305" cy="258" r="3" fill="#ff8fa3"/><circle cx="708" cy="252" r="3" fill="#ffd94d"/><path d="M 131.0,244 C 134.0,170.0 138.0,140.0 139.0,110.0 L 147.0,112.0 C 147.0,160.0 149.0,200.0 151.0,244 z" fill="#6b4a2b"/><path d="M 138.0,240 C 139.0,160.0 141.0,130.0 142.0,114.0" stroke="#7d5835" stroke-width="3.0" fill="none"/><circle cx="108.0" cy="102.0" r="30.0" fill="#23793a"/><circle cx="174.0" cy="104.0" r="28.0" fill="#23793a"/><circle cx="128.0" cy="82.0" r="32.0" fill="#2f9e44"/><circle cx="156.0" cy="86.0" r="30.0" fill="#2f9e44"/><circle cx="138.0" cy="74.0" r="24.0" fill="#46b85c"/><g transform="translate(166.0,120.0)"><path d="M -4,0 Q 0,-4 4,0 Q 0,2 -4,0 z" fill="#f5d547" transform="rotate(20)"/><path d="M -4,3 Q 0,-1 4,3 Q 0,5 -4,3 z" fill="#f0c93a"/></g><path d="M 751.54,244 C 754.36,174.2 758.12,146.0 759.06,117.80000000000003 L 766.58,119.68000000000002 C 766.58,164.8 768.46,202.4 770.34,244 z" fill="#6b4a2b"/><path d="M 758.12,240 C 759.06,164.8 760.94,136.60000000000002 761.88,121.56000000000002" stroke="#7d5835" stroke-width="2.82" fill="none"/><circle cx="729.92" cy="110.28000000000003" r="28.2" fill="#23793a"/><circle cx="791.96" cy="112.16000000000003" r="26.32" fill="#23793a"/><circle cx="748.72" cy="91.48000000000002" r="30.08" fill="#2f9e44"/><circle cx="775.04" cy="95.24000000000002" r="28.2" fill="#2f9e44"/><circle cx="758.12" cy="83.96000000000002" r="22.56" fill="#46b85c"/><g transform="translate(784.44,127.20000000000002)"><path d="M -4,0 Q 0,-4 4,0 Q 0,2 -4,0 z" fill="#f5d547" transform="rotate(20)"/><path d="M -4,3 Q 0,-1 4,3 Q 0,5 -4,3 z" fill="#f0c93a"/></g><g transform="translate(36,246)"><path d="M 0,0 Q 6,-52 22,-38" fill="none" stroke="#23793a" stroke-width="7" stroke-linecap="round"/><path d="M 0,0 Q 16,-44 32,-30" fill="none" stroke="#2f9e44" stroke-width="7" stroke-linecap="round"/><path d="M 0,0 Q 24,-32 40,-18" fill="none" stroke="#23793a" stroke-width="7" stroke-linecap="round"/><path d="M 0,0 Q 2,-60 18,-46" fill="none" stroke="#2f9e44" stroke-width="7" stroke-linecap="round"/></g><g transform="translate(864,246)"><path d="M 0,0 Q -6,-52 -22,-38" fill="none" stroke="#23793a" stroke-width="7" stroke-linecap="round"/><path d="M 0,0 Q -16,-44 -32,-30" fill="none" stroke="#2f9e44" stroke-width="7" stroke-linecap="round"/><path d="M 0,0 Q -24,-32 -40,-18" fill="none" stroke="#23793a" stroke-width="7" stroke-linecap="round"/><path d="M 0,0 Q -2,-60 -18,-46" fill="none" stroke="#2f9e44" stroke-width="7" stroke-linecap="round"/></g><g><g><ellipse cx="-2.6" cy="0" rx="3" ry="4" fill="#f4a8c0"><animate attributeName="rx" values="3;0.8;3" dur="0.36s" repeatCount="indefinite"/></ellipse><ellipse cx="2.6" cy="0" rx="3" ry="4" fill="#ef8bab"><animate attributeName="rx" values="3;0.8;3" dur="0.36s" repeatCount="indefinite"/></ellipse><rect x="-0.7" y="-3.6" width="1.4" height="7.2" rx="0.7" fill="#5a4636"/></g><animateMotion dur="22s" repeatCount="indefinite" path="M 110,180 q 90,-40 180,-10 q 80,30 160,-16 q -120,-30 -200,6 q -80,30 -140,20 z"/></g><g><g transform="rotate(14)"><g transform="translate(-16,-30)"><animateTransform attributeName="transform" type="rotate" values="-6 0 0;6 0 0;-6 0 0" dur="0.8s" repeatCount="indefinite" additive="sum"/><path d="M 0,0 C -16,-2 -26,-18 -18,-30 C -14,-36 -6,-36 -6,-30" fill="none" stroke="#8a5a32" stroke-width="6.5" stroke-linecap="round"/></g><g transform="translate(-8,-34) rotate(40)"><animateTransform attributeName="transform" type="rotate" values="28 0 0;-34 0 0;28 0 0" dur="0.42s" repeatCount="indefinite" additive="sum"/><path d="M 0,0 Q 1.5,11.0 0,20" fill="none" stroke="#8a5a32" stroke-width="7" stroke-linecap="round"/><circle cx="0" cy="20" r="3.64" fill="#c9a273"/></g><ellipse cx="0" cy="-30" rx="17" ry="14" fill="#8a5a32"/><ellipse cx="3" cy="-27" rx="10" ry="8.5" fill="#c9a273"/><g transform="translate(-10,-22) rotate(-30)"><animateTransform attributeName="transform" type="rotate" values="-26 0 0;30 0 0;-26 0 0" dur="0.42s" repeatCount="indefinite" additive="sum"/><path d="M 0,0 Q 1.5,9.9 0,18" fill="none" stroke="#8a5a32" stroke-width="7" stroke-linecap="round"/><circle cx="0" cy="18" r="3.64" fill="#c9a273"/></g><g transform="translate(9,-22) rotate(24)"><animateTransform attributeName="transform" type="rotate" values="30 0 0;-26 0 0;30 0 0" dur="0.42s" repeatCount="indefinite" additive="sum"/><path d="M 0,0 Q 1.5,9.9 0,18" fill="none" stroke="#8a5a32" stroke-width="7" stroke-linecap="round"/><circle cx="0" cy="18" r="3.64" fill="#c9a273"/></g><g transform="translate(10,-34) rotate(-36)"><animateTransform attributeName="transform" type="rotate" values="-30 0 0;28 0 0;-30 0 0" dur="0.42s" repeatCount="indefinite" additive="sum"/><path d="M 0,0 Q 1.5,11.0 0,20" fill="none" stroke="#8a5a32" stroke-width="7" stroke-linecap="round"/><circle cx="0" cy="20" r="3.64" fill="#c9a273"/></g><g transform="translate(17,-44) rotate(-14)"><g transform="rotate(0)"><animateTransform attributeName="transform" type="translate" values="0,0;0,1.6;0,0" dur="1.1s" repeatCount="indefinite" additive="sum"/><circle cx="-12" cy="-3" r="6" fill="#8a5a32"/><circle cx="-12" cy="-3" r="3" fill="#c9a273"/><circle cx="12" cy="-3" r="6" fill="#8a5a32"/><circle cx="12" cy="-3" r="3" fill="#c9a273"/><circle cx="0" cy="0" r="13" fill="#8a5a32"/><path d="M -10,-8 q 10,-7 20,0 q -4,-3 -10,-3 q -6,0 -10,3 z" fill="#6d4423" opacity="0.6"/><ellipse cx="3" cy="3.5" rx="9.5" ry="8" fill="#d9b48a"/><ellipse cx="-1" cy="-1" rx="2.6" ry="3.2" fill="#fff"/><circle cx="-0.19999999999999996" cy="-0.6" r="1.5" fill="#2b1b10"/><circle cx="0.3999999999999999" cy="-1.4" r="0.55" fill="#fff"/><ellipse cx="7" cy="-1" rx="2.6" ry="3.2" fill="#fff"/><circle cx="7.8" cy="-0.6" r="1.5" fill="#2b1b10"/><circle cx="8.4" cy="-1.4" r="0.55" fill="#fff"/><g fill="#d9b48a"><rect x="-5" y="-5" width="16" height="0" rx="2"><animate attributeName="height" values="0;0;8;0;0" keyTimes="0;0.9;0.94;0.98;1" dur="6s" repeatCount="indefinite"/></rect></g><circle cx="5" cy="4.6" r="0.8" fill="#6d4423"/><circle cx="7.4" cy="4.6" r="0.8" fill="#6d4423"/><path d="M 2,8 q 4.5,3.4 9,0" fill="none" stroke="#6d4423" stroke-width="1.2" stroke-linecap="round"/></g></g></g><animateMotion dur="7s" repeatCount="indefinite" keyPoints="0;1;0" keyTimes="0;0.5;1" calcMode="linear" path="M 180,238 q 45,-22 90,0 q 45,-22 90,0 q 45,-22 90,0 q 45,-22 90,0 q 45,-22 90,0 q 45,-22 90,0"/></g><text x="450.0" y="289" font-size="13" text-anchor="middle" fill="#eaf7ec" font-family="ui-monospace, monospace">Rohi is doing zoomies · 1:17 PM in Charlotte · fed 43 🍌 today</text></svg>